<?xml version="1.0" encoding="utf-8"?>
<!-- Generator: Adobe Illustrator 21.0.0, SVG Export Plug-In . SVG Version: 6.00 Build 0)  -->
<svg version="1.1" id="Capa_1" xmlns="http://www.w3.org/2000/svg" xmlns:xlink="http://www.w3.org/1999/xlink" x="0px" y="0px"
	 viewBox="0 0 800 800" style="enable-background:new 0 0 800 800;" xml:space="preserve">
<style type="text/css">
	.st0{fill:#12225D;}
</style>
<g>
	<path class="st0" d="M692.5,569c0.7,0.8,1.5,1.1,2.3,1.1c2.1,0,4.1-2.3,2.7-4.6L656.8,495l-99.3-172.1L399.9,50l-43.3,118.8
		l277.2,330.3L692.5,569z"/>
	<path class="st0" d="M718.7,653.2l-424.9,74.9l-89.6,15.8c-3.7,0.7-3.2,6.1,0.5,6.1H800L718.7,653.2z"/>
	<path class="st0" d="M271.9,322.9l31.2-85.7c0.9-2.3-1-4.1-3-4.1c-1,0-2,0.5-2.6,1.6L256.9,305l-99.3,172L0,750l124.2-21.9
		L271.9,322.9z"/>
</g>
</svg>
