<svg version="1" xmlns="http://www.w3.org/2000/svg" width="933.333" height="933.333" viewBox="0 0 700.000000 700.000000"><path d="M345.6 55.2c-2.1 5.7-3.8 10.7-4 11.3-.2.5-.6 1.7-.9 2.5-.4.8-1.8 4.9-3.2 9-1.4 4.1-3 8.4-3.5 9.5-.5 1.1-1.8 4.5-2.8 7.5-2.9 8.1-15.2 42.2-16.1 44.5-3.2 7.6-3.2 7.7-1.9 9.3 2.3 3 26.2 31.7 26.8 32.2.3.3 6.1 7.2 13 15.5 6.8 8.2 12.7 15.2 13 15.5.3.3 9.6 11.3 20.5 24.5 11 13.2 20.2 24.2 20.5 24.5.4.3 11.1 13.1 24 28.5 23.4 28.1 39 46.6 40 47.5.3.3 2.5 3 5 6s5.5 6.6 6.6 8c1.2 1.4 10.7 12.6 21 25 10.4 12.4 19.8 23.6 21 25 1.2 1.4 9.5 11.3 18.5 22 8.9 10.7 23.1 27.6 31.3 37.5 8.3 9.9 16 19.1 17.1 20.4 1.1 1.3 3.7 4.2 5.7 6.5 2.1 2.2 4.8 5.6 6 7.3 2.8 3.9 4.7 4.8 6.5 3 1.6-1.5 1.9-.9-19.2-37.2-6.7-11.6-18.3-31.6-25.7-44.5-7.4-12.9-17.6-30.5-22.5-39-4.9-8.5-15.9-27.7-24.5-42.5-27.2-47.2-38.1-65.9-39.9-69-1.1-1.7-2.2-3.6-2.6-4.4-.3-.8-5.1-9-10.5-18.3s-9.8-17.4-9.8-17.9-.4-.9-1-.9c-.5 0-1-.4-1-.9s-3.9-7.6-8.6-15.8c-4.8-8.1-9.4-16.2-10.3-17.8-.9-1.7-3.5-6.2-5.8-10-2.3-3.9-13.4-23.2-24.8-43s-22.9-39.6-25.4-44c-2.6-4.4-5-8.7-5.4-9.5-.4-.8-1.7-3.1-3-5.1-1.2-2-6-10.2-10.6-18.3-4.6-8-8.7-14.6-9.1-14.6-.4 0-2.4 4.6-4.4 10.2zM256.4 212.2c-2.7 4.5-5.4 9.2-6.1 10.3-.7 1.1-1.5 2.6-1.9 3.4-.7 1.3-4.8 8.4-15.9 27.6-7.9 13.7-14.2 24.5-28 48.5-10.7 18.6-16.1 28-26.3 45.5-1.9 3.3-4.7 8.1-6.1 10.6-2.9 5.2-25.7 44.5-27.2 46.9-.5.8-10 17.2-21 36.5-34.5 59.9-32.5 56.4-44.7 77.6-4.6 7.9-8.8 15.1-9.3 15.9-.5.8-5.7 9.8-11.5 20S46.1 576.4 44 580c-2.1 3.6-6.8 11.6-10.4 17.8-3.6 6.3-6.6 11.5-6.6 11.8 0 .2-1.7 3.2-3.8 6.6-2.1 3.5-5.3 8.8-7 11.9-1.7 3.1-6.1 10.7-9.7 16.9L0 656.2l4.2-.7c5.7-1 4.6-.8 34.3-6 34.1-6.1 35.5-6.3 46-8.1 12-2.1 14.7-2.6 16.5-2.9.8-.2 2.4-.4 3.5-.4 1.1-.1 2.5-.5 3.2-.9.7-.4 8.2-20.1 16.8-43.7 8.6-23.7 16-43.9 16.4-45 .5-1.1 1.4-3.6 2.1-5.5.7-1.9 1.6-4.4 2-5.5.8-2 8.2-22.3 12.7-35 1.3-3.9 2.8-7.9 3.2-9 1.4-3.4 4.8-12.7 7.6-20.5 1.4-4.1 3.3-9.1 4-11 .7-1.9 3.2-8.7 5.5-15 2.2-6.3 4.7-13.1 5.5-15 .8-1.9 6.2-16.8 12-33s11-30.4 11.5-31.5c.9-2.1 15.4-42.1 22.5-62 2.3-6.6 6.3-17.4 8.7-24 2.5-6.6 7.1-19.2 10.3-28 3.2-8.8 8.2-22.6 11.2-30.7 5.5-14.9 6.1-18 3.2-18.6-1.1-.2-3.2 2.3-6.5 8zM620 573.2c-1.9.4-5.5 1-7.9 1.3-2.4.3-4.6.7-5 .9-.3.2-3.1.7-6.1 1.1-3 .4-5.7.8-6 1-.3.2-2.6.6-5 1-2.5.3-7.6 1.2-11.5 2-3.8.7-8.7 1.6-10.7 1.9-2.1.3-7.7 1.3-12.5 2.2-4.9.8-10.1 1.8-11.8 2-1.6.3-6.6 1.2-11 2s-9.6 1.7-11.5 2c-1.9.2-5.5.9-8 1.4-4.1.9-10.4 2-20 3.5-4.2.7-9.8 1.6-12.5 2.1-1.1.3-3.3.6-5 .9-1.6.3-5.2 1-8 1.5-5.8 1.1-8.8 1.6-17 3-3.3.5-7.1 1.2-8.5 1.5-3 .6-4.7.9-17 3-5.2.9-10.6 1.8-12 2.1-1.4.2-7.7 1.3-14 2.4-6.3 1.1-13.7 2.5-16.5 3-2.7.5-6.3 1.2-8 1.5-1.6.3-4.1.7-5.5.9-1.4.3-10.4 1.9-20 3.5-9.6 1.7-22.4 4-28.5 5-6 1.1-12.6 2.2-14.5 2.6-1.9.3-7.1 1.2-11.5 2s-9.6 1.7-11.5 2c-6 1-37.1 6.5-45.5 8-4.4.8-14.5 2.6-22.5 4-38.4 6.6-40.1 7.1-38 10.4.7 1.2 40.9 1.4 260.5 1.5 142.8.1 260.1-.2 260.6-.5 1.1-.6-2-4.8-9.6-13.3-.5-.6-6.6-7.9-13.5-16.1-6.8-8.3-12.7-15.2-13-15.5-.3-.3-2.5-3-5-6s-4.7-5.7-5-6c-.3-.3-3.9-4.5-8-9.5-4.1-4.9-8.3-9.9-9.4-11-1-1.1-2.5-3-3.3-4.3-1.6-2.4-4.1-2.6-11.3-1z"/></svg>